# xmcd CD database file
# Copyright (C) 1997 Ti Kan
# 
# Track frame offsets:
#     183
#     12753
#     27853
#     41965
#     58680
#     74715
#     94035
#     110903
#     126163
#     140760
#     158583
#     174118
#     185835
# 
# Disc length: 2712 seconds
# 
# Revision: 1
# Processed by: cddbd v1.4b41PL1 Copyright (c) Steve Scherf et al.
# Submitted via: DiscPlay 4.0.4
# 
DISCID=bb0a960d
DTITLE=Various Artist - 40 Geat Country Classics [CDII)
DYEAR=1900
DGENRE=
TTITLE0=Hey Bartender
TTITLE1=I Always Get Lucky With You
TTITLE2=That's The Way Love Goes
TTITLE3=I Was Country When Country Wasn't Cool
TTITLE4=Red Neckin' Love Makin' Night
TTITLE5=Rose Of Cimerron
TTITLE6=Love Will Turn You Around
TTITLE7=Feels So Right
TTITLE8=Drivin' My Life Again
TTITLE9=All My Rowdy Friends
TTITLE10=I Know A Heartache When I see One
TTITLE11=Take This Job And Shove It
TTITLE12=Islands In The Stream
EXTD=
EXTT0=
EXTT1=
EXTT2=
EXTT3=
EXTT4=
EXTT5=
EXTT6=
EXTT7=
EXTT8=
EXTT9=
EXTT10=
EXTT11=
EXTT12=
PLAYORDER=
